PathFileType	4	(X/Y/Z)	C:/Users/beibeiliu/ov580/test_trc/capture2\sequence.31_training_dense_left.trc
DataRate	CameraRate	NumFrames	NumMarkers	Units	OrigDataRate	OrigDataStartFrame	OrigNumFrames
120	120	13	19	mm	120	51	400
Frame#	Time	ThumbCMC			ThumbMCP			ThumbIP			ThumbTip			IndexMCP			IndexPIP			IndexTip			MiddleMCP			MiddlePIP			MiddleTip			RingMCP			RingPIP			RingTip			PinkyMCP			PinkyPIP			PinkyTip			BackHand1			BackHand2			BackHand3	
		X0	Y0	Z0	X1	Y1	Z1	X2	Y2	Z2	X3	Y3	Z3	X4	Y4	Z4	X5	Y5	Z5	X6	Y6	Z6	X7	Y7	Z7	X8	Y8	Z8	X9	Y9	Z9	X10	Y10	Z10	X11	Y11	Z11	X12	Y12	Z12	X13	Y13	Z13	X14	Y14	Z14	X15	Y15	Z15	X16	Y16	Z16	X17	Y17	Z17	X18	Y18	Z18	
50	0.416667	-143.702	75.1018	11.0698	-127.594	79.6926	-15.2152	-119.564	80.5989	-39.7746	-112.694	76.3607	-64.2495	-135.114	52.7695	-59.5315	-102.125	48.9227	-60.4375	-100.005	57.9595	-30.0531	-128.192	29.6376	-58.0407	-96.8152	32.986	-50.9135	-103.822	40.7292	-16.5634	-125.213	13.0637	-49.8528	-94.5847	19.854	-36.7368	-109.34	33.0127	-7.98631	-122.025	-0.892405	-38.046	-96.065	7.09442	-29.8413	-100.93	26.3557	-4.59097	-166.113	14.4868	-7.51709	-171.632	19.4293	19.7096	-170.804	47.1174	-0.122508	
51	0.425	-142.244	73.8871	11.1292	-124.577	81.0257	-13.6617	-116.874	77.0432	-39.1771	-109.803	69.9673	-65.6915	-132.58	47.2356	-60.5482	-101.939	47.4341	-60.8275	-100.815	53.9262	-26.6976	-127.721	27.4405	-57.1036	-97.1274	31.8253	-54.0691	-105.059	39.9707	-13.3333	-123.319	12.4979	-49.2308	-94.6604	20.1912	-37.6602	-104.762	28.8343	-7.92334	-123.147	-6.41134	-34.8481	-95.387	8.10601	-26.9085	-103.269	25.5253	-4.28305	-164.531	14.1189	-8.39273	-169.897	17.168	22.1356	-170.485	47.9143	-0.987017	
52	0.433333	-142.589	67.8994	8.42872	-124.455	74.9333	-11.6293	-114.77	73.9739	-45.0822	-106.953	63.9173	-63.5867	-132.226	40.423	-58.5282	-101.224	40.171	-60.9178	-98.4377	48.551	-27.3467	-123.53	20.5111	-58.0068	-95.0549	26.9434	-52.3894	-101.054	40.5856	-16.8383	-122.316	3.77734	-44.2168	-93.628	15.3452	-35.9726	-104.377	27.7002	-5.55311	-120.64	-8.93865	-32.0928	-94.3986	5.15302	-23.8091	-100.843	23.5771	3.48641	-162.232	11.5377	-7.66798	-171.484	15.7256	25.4922	-168.993	45.2553	-2.5648	
53	0.441667	-140.853	68.4698	10.0067	-122.194	71.6542	-17.0973	-111.068	69.4524	-43.5684	-103.514	57.511	-59.9196	-131.4	35.5652	-57.3854	-99.1886	35.4063	-60.5193	-92.3285	44.8899	-31.4511	-122.506	19.3944	-56.8286	-91.7115	21.808	-47.7279	-98.8726	33.9647	-14.2633	-119.759	3.83415	-44.5458	-92.3813	8.386	-33.6909	-99.4768	25.6958	-6.8243	-121.168	-10.301	-29.7924	-93.7379	1.63723	-23.3409	-96.5569	20.2496	1.77015	-164.483	6.2156	-1.58827	-170.633	15.6502	24.5937	-167.834	43.5615	-2.57395	
54	0.45	-140.439	64.4398	5.13476	-121.242	66.7383	-14.0241	-109.296	63.5866	-41.3504	-100.731	50.4836	-57.7558	-129.752	28.0941	-56.4092	-95.997	28.0257	-58.8508	-89.3128	38.2977	-31.3139	-122.571	7.93306	-51.5257	-90.9063	15.7195	-44.5585	-97.4564	31.2381	-12.602	-118.692	-6.62959	-37.9073	-89.3549	2.55659	-26.7379	-99.8705	21.4345	-4.04857	-116.912	-16.0245	-25.7435	-91.8415	-4.28375	-18.3724	-97.7281	16.5349	3.83889	-162.738	2.3955	-0.937533	-168.055	12.5215	29.061	-165.302	39.8016	0.181971	
55	0.458333	-139.814	58.5305	7.85356	-119.525	61.9249	-16.0691	-108.372	54.2983	-37.8297	-97.2843	44.5211	-59.2383	-130.426	19.8473	-52.1572	-98.0818	17.947	-57.3729	-87.8264	30.9602	-29.3435	-121.638	3.05634	-48.5458	-89.039	9.16817	-42.7158	-93.7785	22.4449	-10.7155	-119.769	-10.1429	-34.313	-87.5157	-1.05049	-22.3422	-98.9042	17.1891	-0.0866721	-116.902	-23.623	-19.3897	-91.6176	-10.7259	-15.1489	-98.3008	12.7041	11.5305	-160.801	1.29893	2.37059	-168.587	12.4656	27.7985	-167.696	34.9462	3.92469	
56	0.466667	-140.331	55.0649	6.1205	-119.729	57.9277	-15.4277	-107.128	50.526	-39.211	-96.6476	38.6965	-55.3239	-128.198	13.1805	-52.4822	-97.7445	11.7809	-56.9398	-85.5195	25.1767	-31.0358	-118.839	-5.08933	-45.8928	-87.9319	0.619213	-36.3122	-96.1628	18.0382	-5.34033	-117.953	-17.2407	-28.9582	-87.2169	-6.98477	-17.6983	-100.58	14.8116	2.6962	-119.105	-26.9668	-13.1047	-91.0631	-16.7998	-9.9835	-97.0568	7.61134	14.697	-160.056	-9.20215	3.42679	-170.583	6.34814	33.6931	-164.263	29.8843	1.61571	
57	0.475	-140.447	50.4537	11.1468	-120.877	51.3162	-11.2174	-107.497	39.4415	-35.6942	-97.6166	27.6119	-50.9723	-125.01	5.78249	-50.8782	-96.2161	2.24425	-51.9058	-86.2323	19.6797	-26.448	-118.286	-12.8621	-41.865	-88.6471	-8.37874	-36.2475	-96.0871	14.2235	-3.51027	-112.698	-23.3435	-27.7744	-86.3215	-11.5823	-17.4095	-96.7864	8.28336	4.23304	-116.117	-33.6744	-8.84581	-87.9164	-20.113	-1.51067	-94.6067	4.03678	18.2959	-158.303	-12.1564	9.32284	-169.526	5.78409	32.1589	-165.552	24.0776	5.72029	
58	0.483333	-139.851	49.9488	10.4134	-119.833	45.9855	-11.039	-108.163	38.482	-33.5687	-97.6689	21.4994	-51.7495	-126.954	0.997264	-47.1274	-96.7551	-3.32962	-51.2404	-86.5323	15.4033	-21.6332	-119.968	-17.6228	-37.7726	-86.8805	-10.3841	-30.8669	-95.0192	11.1283	-2.8456	-115.663	-29.2563	-23.2186	-86.4997	-17.3919	-13.1878	-96.4561	3.8218	6.36521	-114.89	-38.951	-6.18195	-89.3591	-24.7023	-1.39443	-97.4794	1.70853	19.526	-158.199	-13.6287	6.78011	-168.34	0.804844	36.3496	-164.938	18.5167	5.91363	
59	0.491667	-139.243	46.5264	12.1359	-119.17	41.9222	-10.3454	-107.725	32.7867	-32.8629	-97.9797	14.7278	-49.1952	-123.653	-2.86724	-49.5733	-93.2765	-2.25799	-50.1372	-85.9983	8.7321	-23.0893	-117.441	-23.0471	-38.1974	-88.1318	-16.1642	-33.2472	-94.3207	2.996	-1.33822	-112.75	-33.7507	-23.0133	-87.1625	-19.0705	-12.7614	-100.976	1.60208	11.0104	-116.735	-41.9657	-3.33987	-88.6946	-26.0615	3.61668	-97.8621	-4.51178	19.0273	-159.985	-20.0899	14.1067	-169.419	-5.04038	37.3264	-165.075	18.1523	5.4531	
60	0.5	-139.788	43.2804	12.6804	-120.138	38.7143	-8.98407	-106.569	27.8447	-35.7331	-99.2623	11.8097	-48.1288	-127.304	-5.43049	-43.895	-95.6188	-10.2803	-48.2093	-87.7368	7.59958	-17.1581	-118.803	-22.1795	-39.0509	-89.0934	-20.3836	-31.9034	-94.5434	5.55405	-1.62027	-114.368	-36.9855	-21.9804	-86.9086	-25.5782	-10.0645	-98.3968	-2.85988	8.94233	-116.487	-43.6791	-4.29497	-89.5311	-32.5722	3.71841	-94.9298	-7.11112	22.4988	-158.943	-22.0112	9.36482	-169.266	-4.7266	38.2796	-163.614	10.7811	9.36455	
61	0.508333	-138.904	40.4708	12.2678	-118.478	38.0536	-9.12456	-106.236	29.1024	-32.5115	-97.0577	11.7408	-51.063	-127.25	-9.77361	-42.1554	-94.7248	-12.6759	-45.5957	-86.893	7.35131	-19.2461	-117.139	-25.4129	-37.6325	-87.7445	-21.0224	-27.3282	-95.1732	1.75768	0.073539	-115.439	-41.0647	-18.8429	-87.586	-27.4696	-11.1038	-100.843	-6.69839	13.2829	-114.438	-49.7846	-3.53704	-89.2871	-33.9132	3.48806	-97.0407	-9.4908	19.8884	-158.578	-25.9198	10.9615	-167.736	-9.15559	36.7152	-166.249	14.003	8.68435	
62	0.516667	-138.509	38.6323	14.9936	-118.295	34.0574	-9.93691	-107.61	26.6155	-29.2087	-98.8922	8.59968	-49.4957	-124.9	-10.702	-44.2519	-95.221	-12.8378	-46.3328	-89.6889	4.77988	-14.9083	-119.305	-26.2637	-36.0924	-87.41	-19.7804	-28.2341	-94.0813	-2.35	2.28722	-114.242	-41.7205	-20.0209	-88.202	-29.1726	-12.7533	-102.253	-7.17582	12.6763	-116.815	-49.921	-3.50188	-89.8668	-36.7742	3.65714	-96.294	-10.1207	23.1107	-162.228	-22.8538	14.0196	-168.244	-7.97463	37.3737	-164.707	10.7533	9.98588	
